<?xml version="1.0" standalone="no"?>
<!DOCTYPE svg PUBLIC "-//W3C//DTD SVG 20010904//EN"
 "http://www.w3.org/TR/2001/REC-SVG-20010904/DTD/svg10.dtd">
<svg version="1.0" xmlns="http://www.w3.org/2000/svg"
 width="1277.000000pt" height="1280.000000pt" viewBox="0 0 1277.000000 1280.000000"
 preserveAspectRatio="xMidYMid meet">

<g transform="translate(0.000000,1280.000000) scale(0.100000,-0.100000)"
fill="#000000" stroke="none">
<path d="M0 6400 l0 -6400 6385 0 6385 0 0 6400 0 6400 -6385 0 -6385 0 0
-6400z m4974 1485 c41 -6 133 -27 311 -70 11 -2 32 -7 48 -11 16 -3 24 -10 21
-16 -4 -6 -2 -8 3 -5 12 7 88 -17 176 -56 31 -14 60 -26 62 -27 11 -2 166 -79
220 -110 80 -46 226 -142 300 -199 74 -56 252 -207 261 -222 4 -7 26 8 58 38
167 160 403 325 633 442 55 28 104 51 107 51 4 0 28 9 53 21 37 17 47 18 54 7
7 -10 9 -9 9 5 0 11 8 17 25 17 14 0 25 4 25 8 0 12 61 32 74 24 6 -3 27 -7
46 -8 l35 -1 -38 10 -38 11 68 18 c140 39 273 66 315 63 28 -3 37 -1 28 6 -17
10 -16 10 240 15 181 3 452 -21 429 -39 -2 -2 -53 -18 -114 -36 -120 -36 -307
-107 -376 -141 -37 -20 -52 -21 -123 -15 -80 6 -218 -13 -238 -33 -5 -5 23
-19 62 -32 38 -13 70 -24 70 -25 0 -1 -39 -26 -87 -56 -49 -29 -124 -78 -168
-108 l-80 -53 -80 1 c-86 1 -196 -18 -196 -34 0 -5 31 -20 70 -33 39 -13 71
-27 70 -30 0 -4 -24 -27 -52 -51 -131 -111 -239 -216 -340 -331 -118 -135
-282 -348 -274 -357 8 -7 363 14 535 32 344 37 615 102 710 172 38 28 39 41
11 77 -24 30 -171 103 -274 135 -38 12 -77 25 -85 28 -8 3 -22 7 -31 8 -18 2
-107 24 -129 33 -8 3 -26 7 -40 9 -14 2 -41 8 -60 13 -56 13 5 12 76 -1 32 -7
75 -13 94 -15 19 -1 49 -5 65 -8 17 -3 46 -7 65 -10 188 -27 358 -99 400 -169
64 -104 -27 -204 -260 -285 -237 -83 -606 -140 -1021 -158 -144 -6 -157 -8
-169 -28 -8 -11 -44 -79 -81 -150 l-67 -129 -56 112 c-31 62 -67 129 -80 149
l-24 38 -243 12 c-457 23 -879 102 -1081 203 -195 98 -210 231 -35 317 117 56
298 100 487 117 41 4 73 5 70 2 -3 -3 -74 -24 -159 -47 -311 -84 -465 -167
-431 -231 25 -46 219 -113 440 -153 190 -34 431 -58 719 -72 l143 -7 -18 29
c-110 173 -362 460 -539 611 -60 52 -110 100 -110 106 0 7 30 21 67 32 38 11
66 25 65 30 -6 16 -116 35 -198 34 l-76 -2 -104 70 c-57 38 -132 86 -166 107
-35 21 -63 39 -63 41 0 2 29 13 65 25 36 12 65 25 65 30 0 17 -109 35 -210 33
-96 -2 -110 1 -175 28 -111 48 -262 104 -362 134 -51 16 -93 31 -93 35 0 4 46
13 103 20 56 6 107 13 112 14 19 6 431 -2 479 -9z m1516 -25 c100 -12 208 -60
264 -116 66 -66 66 -68 -21 -111 -43 -21 -140 -80 -216 -131 l-138 -92 -57 43
c-81 63 -189 130 -282 177 -44 22 -80 44 -80 49 0 4 18 28 39 53 57 64 140
105 248 122 113 18 140 18 243 6z m-3440 -660 l0 -120 -264 0 c-163 0 -266 -4
-268 -10 -1 -5 -2 -50 0 -100 l3 -90 215 0 215 0 -3 -122 -3 -123 -212 -3
c-212 -2 -213 -2 -218 -25 -4 -13 -5 -27 -4 -33 1 -5 1 -94 0 -197 l-1 -188
-137 3 -138 3 -3 563 -2 562 410 0 410 0 0 -120z m677 -95 c70 -118 130 -214
133 -215 3 0 61 95 130 211 69 116 130 213 135 216 6 2 73 2 148 1 l138 -3
-206 -344 -205 -343 0 -219 0 -219 -140 0 -140 0 0 218 0 217 -205 343 c-113
189 -205 345 -205 348 0 2 65 4 145 4 l144 0 128 -215z m5405 185 c157 -58
260 -241 228 -402 -21 -111 -94 -218 -175 -258 -17 -8 -31 -15 -33 -16 -2 -1
46 -80 106 -175 60 -96 114 -184 121 -196 l12 -23 -165 0 -164 0 -114 180
-113 180 -47 0 -48 0 0 -180 0 -180 -135 0 -135 0 0 545 0 544 138 4 c75 2
211 3 302 1 140 -2 174 -6 222 -24z m1173 1 c112 -45 208 -168 225 -288 20
-148 -56 -310 -174 -370 -17 -8 -32 -17 -34 -18 -2 -2 51 -90 118 -196 l121
-194 -158 -3 c-86 -1 -162 -1 -168 2 -6 2 -60 83 -120 180 l-110 176 -47 0
-48 0 0 -180 0 -180 -135 0 -135 0 0 548 0 548 303 0 c295 -1 303 -2 362 -25z
m-4815 -255 c0 -8 -51 -13 -56 -5 -3 5 9 9 25 9 17 0 31 -2 31 -4z m685 -876
c43 -64 125 -225 178 -349 29 -67 35 -68 57 -11 49 129 201 400 248 443 18 17
20 15 45 -40 50 -113 61 -170 61 -303 0 -111 -2 -132 -25 -185 -25 -60 -88
-165 -99 -165 -4 0 -30 29 -60 65 -29 36 -56 63 -58 60 -2 -2 6 -47 19 -101
l24 -97 -34 -28 c-56 -46 -134 -83 -162 -76 -35 9 -148 84 -156 103 -3 8 4 56
17 105 12 50 20 92 18 94 -2 3 -29 -24 -58 -60 -30 -36 -57 -65 -61 -65 -12 0
-77 104 -100 161 -16 40 -23 82 -27 165 -5 122 14 221 64 330 25 55 26 55 45
38 11 -10 40 -48 64 -84z m2455 -242 c58 -25 95 -61 128 -123 23 -42 27 -62
26 -130 0 -92 -14 -127 -77 -193 -169 -175 -476 -53 -477 190 -1 212 203 342
400 256z m-6027 -9 c45 -23 117 -86 117 -104 0 -5 -26 -25 -56 -43 l-56 -32
-34 29 c-48 42 -97 50 -149 22 -52 -27 -75 -66 -75 -125 0 -36 6 -52 30 -79
57 -66 131 -73 192 -18 l31 28 56 -34 c31 -19 55 -40 53 -46 -12 -45 -119
-111 -199 -123 -178 -27 -341 150 -303 330 37 178 233 275 393 195z m1675 21
c59 -14 107 -48 133 -93 11 -21 19 -40 18 -42 -2 -1 -32 -14 -65 -28 l-62 -25
-18 25 c-24 31 -89 42 -119 20 -31 -23 -5 -43 83 -62 103 -23 143 -45 170 -93
54 -97 2 -201 -120 -237 -29 -8 -66 -15 -83 -15 -49 0 -131 28 -165 56 -33 28
-63 79 -58 96 2 6 33 21 68 34 l65 23 20 -23 c38 -45 81 -56 130 -34 54 24 28
43 -103 73 -126 30 -178 85 -168 178 13 117 130 180 274 147z m3799 -22 c90
-59 107 -185 36 -269 -40 -47 -78 -61 -173 -65 l-85 -4 -3 -85 -3 -85 -69 0
-70 0 0 271 0 271 163 -4 c158 -3 165 -4 204 -30z m902 -96 c23 -71 41 -134
41 -140 0 -7 4 -12 8 -12 5 0 26 62 48 138 l39 137 75 3 75 3 39 -141 c22 -77
43 -140 48 -140 4 0 8 6 8 13 0 6 18 69 41 140 l41 127 69 0 c54 0 69 -3 69
-15 0 -8 -20 -77 -44 -152 -24 -76 -60 -191 -81 -255 l-36 -118 -73 0 -73 0
-31 108 c-17 59 -34 119 -38 135 -3 15 -9 27 -13 27 -4 0 -24 -61 -45 -135
l-39 -135 -72 0 -73 0 -16 48 c-8 26 -38 121 -66 212 -29 91 -60 188 -70 217
-10 29 -15 54 -12 57 3 4 36 6 73 6 l68 0 40 -128z m1071 68 l0 -59 -127 -3
-128 -3 -3 -42 -3 -43 105 0 106 0 0 -60 0 -60 -105 0 -105 0 0 -45 0 -45 130
0 130 0 0 -60 0 -60 -200 0 -200 0 0 270 0 270 200 0 200 0 0 -60z m417 36
c42 -26 70 -65 85 -120 16 -60 -1 -115 -54 -171 l-40 -44 45 -69 c79 -122 81
-112 -17 -112 l-84 0 -54 85 c-79 126 -98 126 -98 -1 l0 -84 -70 0 -70 0 0
271 0 271 163 -4 c139 -3 167 -6 194 -22z m-7517 -91 l0 -105 105 0 105 0 0
105 0 106 68 -3 67 -3 0 -265 0 -265 -67 -3 -68 -3 0 106 0 105 -105 0 -105 0
0 -105 0 -106 -67 3 -68 3 -3 268 -2 267 70 0 70 0 0 -105z m891 -155 c54
-140 99 -261 99 -267 0 -9 -21 -13 -71 -13 l-71 0 -21 50 -21 50 -91 0 -91 0
-21 -50 -21 -50 -71 0 c-45 0 -71 4 -71 11 0 9 95 262 191 507 8 21 14 23 85
20 l76 -3 99 -255z m1077 198 l3 -58 -126 0 -125 0 0 -45 0 -45 100 0 100 0 0
-60 0 -60 -100 0 -100 0 0 -45 0 -45 125 0 126 0 -3 -57 -3 -58 -192 -3 -193
-2 0 270 0 270 193 -2 192 -3 3 -57z"/>
<path d="M4545 7880 c11 -5 29 -8 40 -8 16 0 15 2 -5 8 -34 11 -60 11 -35 0z"/>
<path d="M7985 7880 c19 -8 83 -14 74 -6 -2 2 -24 6 -49 9 -30 4 -38 3 -25 -3z"/>
<path d="M7920 7869 c0 -5 9 -9 20 -9 11 0 20 2 20 4 0 2 -9 6 -20 9 -11 3
-20 1 -20 -4z"/>
<path d="M8378 7863 c7 -3 16 -2 19 1 4 3 -2 6 -13 5 -11 0 -14 -3 -6 -6z"/>
<path d="M4448 7853 c6 -2 18 -2 25 0 6 3 1 5 -13 5 -14 0 -19 -2 -12 -5z"/>
<path d="M4538 7853 c7 -3 16 -2 19 1 4 3 -2 6 -13 5 -11 0 -14 -3 -6 -6z"/>
<path d="M8013 7853 c9 -2 23 -2 30 0 6 3 -1 5 -18 5 -16 0 -22 -2 -12 -5z"/>
<path d="M4488 7823 c7 -3 16 -2 19 1 4 3 -2 6 -13 5 -11 0 -14 -3 -6 -6z"/>
<path d="M5138 7823 c7 -3 16 -2 19 1 4 3 -2 6 -13 5 -11 0 -14 -3 -6 -6z"/>
<path d="M7598 7823 c7 -3 16 -2 19 1 4 3 -2 6 -13 5 -11 0 -14 -3 -6 -6z"/>
<path d="M7588 7801 c11 -6 10 -10 -5 -15 -10 -4 -70 -27 -133 -51 -145 -55
-246 -100 -335 -149 -266 -148 -426 -263 -621 -449 l-111 -106 -109 106 c-188
183 -437 356 -694 484 -125 62 -409 174 -418 164 -9 -9 5 -18 148 -100 442
-254 822 -560 1010 -815 34 -47 64 -87 65 -88 2 -2 13 15 25 37 59 118 294
349 545 538 111 83 360 250 418 279 42 22 109 61 172 102 11 7 32 17 48 23 15
6 27 14 27 18 0 11 -23 31 -34 31 -6 0 -5 -4 2 -9z"/>
<path d="M7350 7743 c0 -5 15 -9 33 -10 26 -1 28 0 12 7 -26 11 -45 12 -45 3z"/>
<path d="M7262 7706 c7 -8 17 -12 22 -9 4 3 2 9 -5 14 -22 13 -31 11 -17 -5z"/>
<path d="M8744 7071 c-2 -2 -4 -60 -4 -128 l0 -123 120 0 c134 0 173 11 208
55 40 51 19 154 -36 184 -19 10 -279 21 -288 12z"/>
<path d="M9917 7073 c-4 -3 -7 -62 -7 -130 l0 -123 119 0 c125 0 161 8 198 42
48 45 38 149 -17 188 -26 18 -48 22 -158 26 -71 2 -132 1 -135 -3z"/>
<path d="M8481 5802 c-63 -10 -118 -87 -107 -150 25 -157 237 -161 270 -6 18
84 -72 170 -163 156z"/>
<path d="M7857 5813 c-4 -3 -7 -30 -7 -60 l0 -53 65 0 c52 0 69 4 85 20 26 26
25 46 -5 75 -20 20 -34 25 -78 25 -29 0 -57 -3 -60 -7z"/>
<path d="M10257 5813 c-4 -3 -7 -30 -7 -60 l0 -53 63 0 c67 0 91 11 102 47 4
17 -1 29 -19 48 -21 20 -35 25 -79 25 -29 0 -57 -3 -60 -7z"/>
<path d="M3646 5677 c-21 -57 -21 -57 20 -57 30 0 35 3 29 18 -3 9 -9 29 -12
45 -9 42 -19 41 -37 -6z"/>
</g>
</svg>
